Patient4_TMGait_0pt5_02_left_07_EMG.mot
version=1
nRows=36
nColumns=33
inDegrees=no
endheader
time	1LAddLong	2LGlutMax	3LGlutMed	4LIliopsoas	5LSemiMemb	6LBicFemLong	7LRecFem	8LVastMed	9LVastLat	10LGasMed	11LTibAnt	12lTibPost	13LPeroneusLong	14LSol	15LExtDigLong	16LFlexDigLong	17RAddLong	18RGlutMax	19RGlutMed	20RIliopsoas	21RSemiMemb	22RBicFemLong	23RRecFem	24RVastMed	25RVastLat	26RGasMed	27RTibAnt	28RTibPost	29RPeroneusLong	30RSol	31RExtDigLong	32RFlexDigLong
8.917	0.001678	0.64209	-0.039368	-0.006561	-0.047913	0.15884	-0.10834	0.00412	-0.17548	0.26947	0.004578	-0.019836	0.25803	-0.16159	0.079956	-0.014496	-0.010376	-0.045624	-0.089111	-0.079651	-0.022888	0.052338	0.34988	-0.079498	-0.002136	-0.00061	0.24841	-0.005341	0.10239	-0.024414	-0.009003	-0.007935
8.918	0.004425	0.62683	-0.1033	0.009613	-0.009308	0.17059	-0.074463	0.006104	0.006256	0.11887	0.006104	-0.019226	0.055237	-0.028229	0.071869	-0.023041	-0.031891	-0.093689	-0.073242	-0.040131	-0.046539	0.042114	0.37643	-0.10757	-0.002899	0.004272	0.45471	-0.003052	0.12787	-0.080566	-0.002594	-0.010681
8.919	-0.006409	0.47699	-0.18753	0.001984	-0.025024	0.06958	-0.17441	0.009613	-0.062561	-0.063171	0.005341	-0.021057	-0.056915	0.010376	0.026245	-0.011749	-0.042267	-0.10544	-0.02182	-0.016327	-0.059814	0.049286	0.40253	-0.088348	-0.006561	0.002289	0.35492	-0.006866	0.11368	-0.112	-0.003357	0.00061
8.92	0.005798	0.35248	-0.27084	0.002289	-0.040588	0.14343	-0.29984	0.007935	-0.17059	0.04425	0.025177	0.009918	0.047607	-0.063934	0.000763	-0.009308	-0.033875	-0.1062	-0.02243	-0.028076	-0.008392	0.11383	0.38391	-0.038147	-0.002594	0.001678	0.32638	-0.008698	-0.053253	-0.13977	-0.002136	-0.005493
8.921	0.004272	0.26306	-0.3186	0.009613	-0.084534	0.23773	-0.39307	0.005951	-0.10468	0.44784	0.044861	-0.000153	0.13184	0.003662	-0.006409	-0.031586	0.011444	-0.1564	-0.035095	-0.040283	0.032196	0.121	0.32211	-0.03067	0.005341	-0.001068	-0.41351	-0.005341	-0.10147	-0.093231	-0.005493	-0.009613
8.922	-0.00412	0.26901	-0.20752	0.027313	-0.078583	-0.076294	-0.43655	-0.00412	0.010681	0.13931	0.068512	0.003052	0.098114	-0.28854	-0.017395	-0.015564	0.009918	-0.14252	0.049744	-0.096436	0.011597	0.11231	0.30045	-0.10223	-0.004272	-0.003662	-0.74356	-0.003357	-0.090027	-0.090027	-0.005493	0.005951
8.923	-0.003662	0.26032	0.063324	0.015411	-0.071869	-0.006104	-0.41992	-0.01709	0.006256	-0.039215	0.055847	0.011749	0.13504	-0.21378	-0.020447	-0.001373	-0.046692	-0.11902	0.14114	-0.081177	-0.02533	0.10941	0.30548	-0.070496	-0.001831	0.003815	-0.55695	-0.002289	0.039063	-0.097351	-0.008392	-0.000305
8.924	-0.011444	0.19287	0.26779	-0.006104	-0.085144	0.036774	-0.37567	-0.009766	-0.067749	-0.006409	-0.027313	-0.00412	0.25589	0.031128	0.029602	0.011902	-0.022278	-0.21332	0.10605	-0.025482	-0.055542	0.11108	0.28625	-0.073242	0.006714	0.004272	-0.03479	-0.003662	0.13275	-0.078735	-0.00473	-0.006104
8.925	-0.005035	0.23651	0.33249	0.006714	-0.13214	-0.090637	-0.41657	0.01297	-0.063629	0.067139	-0.085754	0.005341	0.12634	0.002441	0.075989	0.014954	-0.0177	-0.25269	0.064697	0.047913	-0.070343	0.028992	0.26245	-0.036469	-0.007629	-0.002441	0.25604	-0.003357	0.065002	-0.040894	-0.002899	-0.012512
8.926	0.002747	0.21408	0.11276	0.005341	-0.080261	-0.15686	-0.46341	0.018158	-0.016327	0.22873	-0.084534	0.003204	0.10788	-0.14038	0.080566	0.022125	0.037537	-0.26138	-0.016327	0.095062	-0.10315	0.031891	0.23438	-0.041656	-0.007782	-0.00061	0.08255	-0.00351	-0.014191	0.010376	-0.003357	-0.002747
8.927	0.001068	0.2272	0.03006	0.001068	-0.033417	-0.24643	-0.53101	0.022278	0.018311	0.31174	-0.062103	0.012817	0.051727	-0.059509	0.003052	0.02243	0.075684	-0.29388	-0.046539	0.14725	-0.074921	0.003204	0.26337	-0.066681	0.003662	0.00061	-0.076141	-0.002594	-0.059967	0.035095	-0.002136	-0.006866
8.928	0.016785	0.22964	0.11063	-0.000916	-0.020142	-0.56305	-0.59982	0.008392	0.004272	0.23834	-0.044403	0.002289	0.1297	-0.014954	-0.083313	0.033569	0.085297	-0.33951	0.033264	0.10559	-0.042419	-0.001373	0.28336	-0.090637	-0.00946	0	-0.000916	-0.003204	-0.14145	0.022583	-0.002747	-0.006714
8.929	0.012054	0.22812	0.061646	0.024109	0.007629	-0.20828	-0.55084	0.010529	0.068665	0.14923	-0.08728	-0.00412	0.006561	-0.087585	-0.15793	0.034027	0.042725	-0.26504	0.025635	0.016479	-0.080566	-0.020294	0.28427	-0.11536	-0.005341	-0.00061	0.066681	-0.005188	-0.13886	0.053253	-0.004425	-0.002747
8.93	-0.005035	0.20615	0.01358	0.023956	-0.004578	0.33295	-0.46631	0.006409	0.077515	0.27832	-0.045624	-0.009918	0.066681	-0.062714	-0.049133	0.022125	0.031281	-0.30273	-0.00946	-0.07431	-0.071716	0.002594	0.27359	-0.060425	-0.012512	0.00412	0.11902	-0.003662	-0.12863	0.08667	-0.003967	-0.010376
8.931	0.009003	0.15335	-0.023804	0.014801	-0.055084	0.52078	-0.39078	-0.007782	0.17014	0.069427	-0.010681	-0.009308	0.17212	0.041809	-0.026245	0.016937	0.070648	-0.29694	-0.018158	-0.051727	-0.045319	0.011597	0.31097	-0.064545	-0.003357	-0.000305	0.12375	-0.001984	-0.071411	0.056915	-0.009766	-0.017548
8.932	-0.01236	0.10773	-0.040283	-0.006104	-0.0737	0.45578	-0.34134	-0.016479	0.15701	-0.46829	-0.030518	-0.016937	0.4924	0.096741	-0.087585	0.02243	0.075378	-0.32684	-0.018311	0.064087	-0.050201	0.007172	0.29343	-0.07843	-0.005798	-0.003052	-0.026093	-0.007782	0.003967	0.045471	-0.00061	-0.013123
8.933	-0.018463	0.11215	-0.047913	-0.001678	-0.097809	0.27603	-0.31494	-0.01297	0.15213	-0.40237	-0.021515	-0.016632	0.016632	0.10864	-0.26459	0.009308	0.06424	-0.39856	-0.058746	0.080566	-0.051727	0.001068	0.33386	-0.090027	-0.007477	0.000153	-0.059509	-0.011749	0.030365	0.022278	-0.004425	-0.012054
8.934	-0.010681	0.056458	-0.041962	0.007324	-0.058899	0.025635	-0.37674	-0.00824	0.19272	-0.18097	0.006409	-0.016937	0.41611	-0.062256	-0.35767	0.015106	0.053101	-0.34866	-0.13351	0.10254	-0.072632	-0.011139	0.3389	-0.080719	-0.011292	-0.004425	0.031586	-0.00473	0.049591	0.008087	-0.004578	-0.005493
8.935	-0.019989	0.027008	0.022736	0.017853	0.06012	0.24445	-0.43335	-0.026245	0.20065	-0.11597	0.043793	-0.015564	-0.098419	-0.05188	-0.23041	0.006409	0.009003	-0.36041	-0.04715	0.023346	-0.065918	0.008087	0.32455	-0.094452	0.002441	0.001678	0.17197	-0.010834	0.072632	0.023651	-0.006561	-0.013885
8.936	-0.014038	0.016327	0.030518	0.012817	0.095062	0.24017	-0.44281	-0.018768	0.17242	-0.16251	0.051727	-0.008392	-0.16083	0.051575	-0.000458	-0.002594	-0.003052	-0.31357	0.004272	0.001526	-0.029144	0.014191	0.35523	-0.038605	-0.007324	-0.001068	0.1149	-0.005035	0.025787	0.091705	-0.005951	-0.01358
8.937	-0.015259	-0.017242	0.002136	0.00946	0.063782	0.11429	-0.42938	-0.01709	0.037994	-0.15045	0.007324	-0.013885	0.14511	0.11841	0.21652	0.013123	-0.0383	-0.32577	-0.00412	-0.002136	-0.028229	0.030823	0.30594	-0.009003	-0.005646	-0.001678	0.07431	-0.003662	-0.037537	0.12375	-0.002136	-0.004883
8.938	-0.00351	-0.091858	-0.017242	0.004425	-0.012665	0.07019	-0.40573	-0.018005	-0.10834	-0.086517	-0.010986	-0.015869	0.21668	0.006866	0.23926	0.00946	-0.037537	-0.25421	0.02594	-0.075531	-0.03418	0.027618	0.28427	0.009613	-0.002136	0.003357	0.057068	-0.00412	-0.003052	0.098572	-0.005493	0.000305
8.939	0.010529	-0.098877	-0.014648	-0.016785	-0.035706	-0.068665	-0.33798	-0.014954	-0.11993	-0.041199	-0.016022	-0.02121	0.66055	-0.19806	0.11124	0.013123	-0.03067	-0.30777	-0.000916	-0.080414	-0.028076	0.043335	0.30594	-0.019684	-0.010834	0.001831	0.054474	-0.003357	0.056152	0.00885	-0.003815	-0.001984
8.94	0.017395	-0.034027	-0.018616	0.004272	-0.027313	0.23315	-0.29846	-0.014954	-0.11276	0.007782	-0.001373	-0.02182	0.080109	-0.38803	-0.00061	0.010834	0.015411	-0.35736	-0.00473	-0.030975	-0.029449	0.035553	0.29724	-0.007324	-0.015259	0.003967	0.049896	-0.002594	0.041351	-0.055237	-0.006561	-0.000916
8.941	0.002441	-0.049744	-0.050507	0.004272	0.005341	0.2803	-0.26916	-0.020294	-0.059052	0.022278	0.026703	-0.018311	-0.33844	-0.46677	-0.007782	0.007477	0.031128	-0.42099	-0.025787	0.009308	-0.031128	0.037079	0.27344	-0.006104	-0.007019	0.002441	0.054169	0.001526	0.053558	-0.13657	-0.005951	-0.002594
8.942	0.016937	-0.040894	-0.083008	0.014496	0.00412	-0.17792	-0.27741	-0.016022	-0.007324	-0.013428	0.027924	-0.006866	-0.13626	-0.22995	0.11902	0.010681	0.042267	-0.43167	-0.059509	0.048676	-0.01297	0.043488	0.26504	0.042725	-0.007477	0.000305	0.054932	-0.006866	0.016632	-0.26886	-0.004578	-0.000763
8.943	0.020599	-0.023956	-0.17578	0.016785	-0.040131	-0.48477	-0.26581	-0.016937	0.001678	-0.037231	0.045929	-0.003967	-0.40512	-0.20721	0.15595	0.011749	0.026855	-0.42419	-0.049744	0.030518	-0.018616	0.059204	0.28702	0.001526	-0.018768	-0.00824	0.029449	-0.006866	-0.010376	-0.24628	-0.007935	-0.003357
8.944	0.017548	0.010529	-0.19898	0.007782	-0.042267	-0.41473	-0.23148	-0.007935	0.010681	-0.06546	0.031586	-0.022125	-0.32303	-0.23178	0.10574	0.00351	-0.005646	-0.40619	-0.088654	-0.095062	-0.022736	0.045166	0.29755	0.005798	-0.017853	-0.006561	0.023041	-0.006714	-0.033417	-0.002136	-0.012817	-0.007172
8.945	0.01236	-0.040131	-0.14648	0.018005	0.049133	-0.63644	-0.15778	0.005493	0.014648	-0.12314	-0.009003	-0.026398	0.50201	-0.17288	0.047913	0.001373	0.015869	-0.40588	-0.03952	-0.19699	-0.020905	0.063934	0.30624	-0.028229	0.00351	-0.021515	0.044403	0.005493	-0.075836	0.21881	-0.006409	-0.009155
8.946	0.001831	-0.039063	0.17242	0.005341	0.10681	-0.5867	-0.14999	0.008545	0.029449	-0.14832	-0.003662	-0.015106	0.39597	-0.081024	0.067749	0.000458	-0.002594	-0.36804	0.006256	-0.2449	-0.006256	0.062256	0.26581	-0.016327	-0.009308	-0.019379	0.041046	-0.003357	-0.078583	0.32623	-0.009766	-0.002899
8.947	-0.006714	0.00351	0.31036	0.001678	0.071716	0.0737	-0.082245	0.019989	-0.047607	-0.071869	0.003662	-0.006561	0.23331	-0.11765	0.1564	0.025177	0.005035	-0.37476	-0.082855	-0.10956	-0.020447	0.064392	0.29968	-0.032501	-0.007935	-0.010376	0.014496	-0.000153	-0.03891	0.31815	-0.010834	-0.007782
8.948	-0.032959	0.03891	0.18433	0.000916	0.002747	0.31738	-0.062103	0.016174	-0.079498	0.024719	-0.020447	-0.016174	0.52216	-0.074463	0.13947	0.018616	0.037689	-0.42099	0.012512	0.096741	-0.022736	0.029449	0.29602	-0.079346	-0.002899	-0.006409	0.032959	-0.003357	-0.014343	0.2507	-0.008392	-0.011902
8.949	-0.0383	0.12238	0.001984	-0.024414	-0.015717	0.30914	-0.059662	0.007629	-0.053406	0.10635	-0.026093	-0.003357	0.24872	0.042267	0.096588	0.025635	0.025482	-0.41657	-0.09201	0.17838	-0.033417	0.033722	0.26001	-0.099335	-0.006256	-0.001831	0.026398	-0.006409	-0.021667	0.1326	-0.001831	-0.006256
8.95	-0.024261	0.074615	-0.040131	-0.036774	-0.04364	0.29434	-0.047607	-0.002136	-0.007935	0.15457	-0.034027	0.036469	-0.081024	-0.10925	0.063629	0.023956	0.006409	-0.37964	-0.071716	0.23315	-0.057678	0.009918	0.22781	-0.11261	-0.000763	-0.001678	0.030823	-0.001984	-0.035248	-0.005798	-0.005646	-0.005798
8.951	-0.009155	-0.017242	0.001526	-0.026398	-0.11704	0.2536	-0.094147	-0.009308	-0.008087	0.14618	-0.058441	0.12344	-0.058289	-0.15366	0.048981	0.020905	0.011597	-0.32913	-0.10498	0.15961	-0.066986	-0.005341	0.25482	-0.13168	-0.019989	-0.001678	0.012512	-0.003967	-0.014801	-0.067596	-0.005798	0.001068
8.952	-0.002136	-0.10513	0.15366	-0.012207	-0.112	0.034027	-0.099182	-0.000153	-0.023804	0.11887	-0.069122	-0.029144	-0.23544	-0.10529	-0.005341	0.017548	0.016937	-0.25543	-0.12207	0.055389	-0.058746	-0.001221	0.23727	-0.16251	-0.02121	-0.000153	0.012817	-0.005646	-0.018311	-0.046844	-0.002747	-0.002136
